<?xml version="1.0" encoding="utf-8"?>
<!-- Generator: Adobe Illustrator 27.5.0, SVG Export Plug-In . SVG Version: 6.00 Build 0)  -->
<svg version="1.1" xmlns="http://www.w3.org/2000/svg" xmlns:xlink="http://www.w3.org/1999/xlink" x="0px" y="0px"
	 viewBox="0 0 500 500" style="enable-background:new 0 0 500 500;" xml:space="preserve">
<g id="BACKGROUND">
	<radialGradient id="SVGID_1_" cx="112.3335" cy="10.111" r="642.6014" gradientUnits="userSpaceOnUse">
		<stop  offset="0" style="stop-color:#FFB800"/>
		<stop  offset="1" style="stop-color:#FF9000"/>
	</radialGradient>
	<rect style="fill:url(#SVGID_1_);" width="500" height="500"/>
</g>
<g id="OBJECTS">
	<g>
		<g>
			<path style="fill:#FFE082;" d="M320.663,125.053c-4.135,17.242-28.775,27.979-46.758,35.813
				c-3.462,1.508-6.734,2.931-9.532,4.258l-3.462,1.565c-1.84,0.835-3.708,1.669-5.586,2.523l0.958-5.757
				c2.011-0.892,4.021-1.783,6.023-2.675c10.338-4.59,21.027-9.342,31.042-14.738c10.309-5.937,19.794-12.102,22.316-22.136
				c2.115-9.731-4.22-22.098-13.031-25.446c-9.143-3.073-19.964-0.133-29.354,3.149c-2.257,0.787-4.733,1.707-7.587,2.807
				c-1.233,0.474-2.466,0.958-3.699,1.432c-11.324,4.41-23.047,8.991-33.233,8.678c-6.592-0.133-13.041-3.139-17.223-8.043
				l-0.01-0.009c-6.582-8.062-7.341-19.746-2.324-35.718c1.043-3.177,2.077-5.833,3.272-8.394c0.323-0.702,0.901-1.243,1.641-1.508
				c0.73-0.266,1.527-0.237,2.229,0.095c0.711,0.332,1.252,0.92,1.517,1.679c0.266,0.749,0.209,1.584-0.152,2.286
				c-4.429,9.987-12.946,34.162,4.031,42.328c8.678,3.917,18.95,0.379,28.026-2.731c1.081-0.379,2.153-0.749,3.206-1.091
				c2.864-0.977,5.88-2.134,9.067-3.357c1.499-0.579,3.016-1.157,4.552-1.736c2.077-0.778,4.496-1.679,6.933-2.485
				c9.01-3.016,20.676-6.004,30.985-2.314C315.665,97.804,323.357,112.828,320.663,125.053z"/>
			<path style="fill:#FFE082;" d="M234.773,275.161c-2.513,0.161-4.989,0.246-7.407,0.246c-3.746,0-7.36-0.199-10.822-0.588
				c-16.199-1.707-28.624-8.725-34.068-19.263l-0.512-0.977l1.1-0.057c1.024-0.057,2.03-0.199,2.978-0.446l0.531-0.133l0.266,0.474
				c4.96,8.906,15.402,14.53,30.198,16.285c5.539,0.616,11.305,0.778,17.138,0.465L234.773,275.161z"/>
			<path style="fill:#FFE082;" d="M231.848,175.221c-12.006,6.427-21.383,12.837-29.51,20.172h0
				c-8.535,7.719-15.1,16.881-18.985,26.495l-0.354,0.876l0.94,0.098c1.005,0.105,1.995,0.307,2.943,0.601l0.612,0.19l0.252-0.59
				c9.375-21.908,29.879-34.863,44.485-42.701c1.674-0.892,3.348-1.762,5.044-2.621l0.357-0.181l0.031-0.4
				c0.099-1.301,0.198-2.602,0.309-3.903l0.107-1.27l-1.138,0.576C235.099,173.496,233.433,174.365,231.848,175.221z"/>
			<path style="fill:#FFE082;" d="M331.71,211.755c-0.973-0.272-1.919,0.247-2.196,1.212c-6.884,23.293-29.091,37.796-46.5,45.856
				c-11.764,5.272-23.688,8.936-35.446,10.89c-1.426,0.241-2.959,0.463-4.685,0.68l-0.661,0.083l0.095,1.795
				c0.022,0.47,0.044,0.948,0.078,1.418l0.054,0.75l0.746-0.095c1.567-0.201,3.159-0.436,4.729-0.699
				c35.269-5.847,75.238-26.572,85.034-59.704C333.227,212.97,332.691,212.03,331.71,211.755z"/>
		</g>
		<g>
			
				<linearGradient id="SVGID_00000039844743691010092580000016400990946270785178_" gradientUnits="userSpaceOnUse" x1="252.1682" y1="319.1482" x2="252.1682" y2="89.1631">
				<stop  offset="0" style="stop-color:#56371E"/>
				<stop  offset="1" style="stop-color:#83583F"/>
			</linearGradient>
			<path style="fill:url(#SVGID_00000039844743691010092580000016400990946270785178_);" d="M270.861,95.965
				c-2.241-6.912-13.261-10.158-17.544-1.921c-1.767,3.279-2.953,5.86-4.288,9.261c1.314-0.464,2.639-0.928,3.953-1.402
				c1.082-0.397,2.175-0.795,3.268-1.204c0.563-1.402,0.612-1.477,0.667-1.609c0.839-1.954,3.103-2.871,5.068-2.032
				c0.751,0.32,1.347,0.85,1.744,1.48c0.663,1.038,0.806,2.374,0.298,3.588c-0.022,0.055-0.729,1.733-1.811,4.516
				c-1.789,4.637-4.582,12.355-6.868,20.724c-0.475,1.723-2.031,2.849-3.732,2.849c-0.331,0-0.673-0.044-1.016-0.133
				c-2.054-0.563-3.268-2.683-2.716-4.748c1.513-5.565,2.76-9.446,4.283-13.741c-2.252,0.806-4.538,1.579-6.867,2.285
				c-0.083,0.318-7.98,25.508-10.467,59.198c-0.167,2.266-0.376,4.527-0.541,6.801c-0.641,8.833-1.016,17.666-1.215,26.454
				c-0.11,21.309,1.292,43.027,4.041,64.37c0.199,1.524,0.398,3.047,0.607,4.571c0.707,5.057,1.48,10.081,2.319,15.071
				c1.612,9.197,3.6,18.328,5.432,27.437c0.177,0.85,0.961,1.446,1.833,1.358c0.972-0.088,1.667-0.972,1.524-1.932
				c-0.441-4.924-1.579-16.043-2.031-20.713c-0.662-7.364-1.181-14.74-1.524-22.126c-0.077-1.535-0.144-3.058-0.188-4.582
				c-1.27-32.903,0.707-65.971,6.481-98.332c0.42-2.374,0.872-4.748,1.347-7.11c4.03-20.592,9.639-40.874,16.97-60.605
				c0.177-0.497,0.364-0.994,0.552-1.491C271.435,99.984,271.469,97.842,270.861,95.965z"/>
			
				<linearGradient id="SVGID_00000028299771413275009330000013382292444274864057_" gradientUnits="userSpaceOnUse" x1="182.2175" y1="251.1261" x2="182.2175" y2="226.1842">
				<stop  offset="0" style="stop-color:#56371E"/>
				<stop  offset="1" style="stop-color:#80533A"/>
			</linearGradient>
			<path style="fill:url(#SVGID_00000028299771413275009330000013382292444274864057_);" d="M182.222,226.184
				c-6.888,0-12.476,5.578-12.476,12.466c0,6.889,5.587,12.476,12.476,12.476c6.888,0,12.466-5.587,12.466-12.476
				C194.688,231.762,189.111,226.184,182.222,226.184z M178.716,243.472c-0.796,0-1.44-0.644-1.44-1.44
				c0-0.796,0.644-1.44,1.44-1.44c0.796,0,1.44,0.644,1.44,1.44C180.156,242.828,179.512,243.472,178.716,243.472z M185.72,236.718
				c-0.796,0-1.44-0.653-1.44-1.449c0-0.787,0.644-1.44,1.44-1.44c0.796,0,1.449,0.653,1.449,1.44
				C187.169,236.065,186.516,236.718,185.72,236.718z M182.446,228.664c-6.002,0-10.885,4.874-10.885,10.895
				c0,1.659,0.37,3.214,1.033,4.618c-0.91-1.602-1.432-3.442-1.432-5.405c0-6.04,4.883-10.923,10.904-10.923
				c4.608,0,8.543,2.844,10.155,6.874C190.439,231.139,186.722,228.664,182.446,228.664z"/>
		</g>
	</g>
	<g style="opacity:0.7;">
		<g>
			<path style="fill:#FFF0DA;" d="M477.653,411.114c-1.256,5.239-8.743,8.501-14.207,10.881c-1.052,0.458-2.046,0.89-2.896,1.294
				l-1.052,0.475c-0.559,0.254-1.127,0.507-1.697,0.767l0.291-1.749c0.611-0.271,1.222-0.542,1.83-0.813
				c3.141-1.395,6.389-2.839,9.432-4.478c3.132-1.804,6.014-3.677,6.781-6.726c0.643-2.957-1.282-6.714-3.96-7.732
				c-2.778-0.934-6.066-0.04-8.919,0.957c-0.686,0.239-1.438,0.519-2.305,0.853c-0.375,0.144-0.749,0.291-1.124,0.435
				c-3.441,1.34-7.002,2.732-10.097,2.637c-2.003-0.04-3.962-0.954-5.233-2.444l-0.003-0.003c-2-2.449-2.23-6-0.706-10.852
				c0.317-0.965,0.631-1.772,0.994-2.55c0.098-0.213,0.274-0.378,0.499-0.458c0.222-0.081,0.464-0.072,0.677,0.029
				c0.216,0.101,0.38,0.28,0.461,0.51c0.081,0.228,0.063,0.481-0.046,0.694c-1.346,3.034-3.934,10.38,1.225,12.861
				c2.637,1.19,5.758,0.115,8.515-0.83c0.328-0.115,0.654-0.228,0.974-0.331c0.87-0.297,1.787-0.648,2.755-1.02
				c0.455-0.176,0.916-0.352,1.383-0.527c0.631-0.236,1.366-0.51,2.106-0.755c2.738-0.916,6.282-1.824,9.415-0.703
				C476.134,402.835,478.471,407.4,477.653,411.114z"/>
			<path style="fill:#FFF0DA;" d="M451.556,456.723c-0.764,0.049-1.516,0.075-2.251,0.075c-1.138,0-2.236-0.06-3.288-0.179
				c-4.922-0.519-8.697-2.651-10.351-5.853l-0.156-0.297l0.334-0.017c0.311-0.017,0.617-0.061,0.905-0.135l0.161-0.04l0.081,0.144
				c1.507,2.706,4.68,4.415,9.175,4.948c1.683,0.187,3.435,0.236,5.207,0.141L451.556,456.723z"/>
			<path style="fill:#FFF0DA;" d="M450.667,426.357c-3.648,1.953-6.497,3.901-8.966,6.129h0c-2.593,2.345-4.588,5.129-5.769,8.05
				l-0.108,0.266l0.286,0.03c0.305,0.032,0.606,0.093,0.894,0.183l0.186,0.058l0.077-0.179c2.848-6.656,9.078-10.593,13.516-12.974
				c0.509-0.271,1.017-0.535,1.533-0.796l0.109-0.055l0.009-0.122c0.03-0.395,0.06-0.79,0.094-1.186l0.033-0.386l-0.346,0.175
				C451.655,425.833,451.149,426.097,450.667,426.357z"/>
			<path style="fill:#FFF0DA;" d="M481.009,437.457c-0.296-0.083-0.583,0.075-0.667,0.368c-2.092,7.077-8.839,11.484-14.128,13.933
				c-3.574,1.602-7.198,2.715-10.77,3.309c-0.433,0.073-0.899,0.141-1.423,0.207l-0.201,0.025l0.029,0.545
				c0.007,0.143,0.013,0.288,0.024,0.431l0.016,0.228l0.227-0.029c0.476-0.061,0.96-0.133,1.437-0.213
				c10.716-1.776,22.86-8.073,25.836-18.14C481.47,437.827,481.307,437.541,481.009,437.457z"/>
		</g>
		<g>
			<path style="fill:#FFD988;" d="M462.521,402.276c-0.681-2.1-4.029-3.086-5.331-0.584c-0.537,0.996-0.897,1.78-1.303,2.814
				c0.399-0.141,0.802-0.282,1.201-0.426c0.329-0.121,0.661-0.241,0.993-0.366c0.171-0.426,0.186-0.449,0.203-0.489
				c0.255-0.594,0.943-0.872,1.54-0.617c0.228,0.097,0.409,0.258,0.53,0.449c0.201,0.315,0.245,0.721,0.091,1.09
				c-0.007,0.017-0.221,0.527-0.55,1.372c-0.543,1.409-1.392,3.754-2.087,6.297c-0.144,0.523-0.617,0.866-1.134,0.866
				c-0.101,0-0.205-0.013-0.309-0.04c-0.624-0.171-0.993-0.815-0.825-1.443c0.46-1.691,0.839-2.87,1.302-4.175
				c-0.684,0.245-1.379,0.48-2.087,0.694c-0.025,0.097-2.425,7.75-3.18,17.986c-0.051,0.689-0.114,1.375-0.164,2.066
				c-0.195,2.684-0.309,5.367-0.369,8.038c-0.034,6.474,0.393,13.073,1.228,19.558c0.06,0.463,0.121,0.926,0.184,1.389
				c0.215,1.536,0.45,3.063,0.704,4.579c0.49,2.795,1.094,5.569,1.65,8.337c0.054,0.258,0.292,0.439,0.557,0.413
				c0.295-0.027,0.507-0.295,0.463-0.587c-0.134-1.496-0.48-4.874-0.617-6.293c-0.201-2.238-0.359-4.479-0.463-6.723
				c-0.023-0.466-0.044-0.929-0.057-1.392c-0.386-9.997,0.215-20.044,1.969-29.877c0.128-0.721,0.265-1.443,0.409-2.16
				c1.225-6.257,2.929-12.419,5.156-18.414c0.054-0.151,0.111-0.302,0.168-0.453C462.695,403.497,462.705,402.846,462.521,402.276z"
				/>
			<path style="fill:#FFD988;" d="M435.589,441.842c-2.093,0-3.791,1.695-3.791,3.788c0,2.093,1.698,3.791,3.791,3.791
				c2.093,0,3.788-1.698,3.788-3.791C439.377,443.536,437.682,441.842,435.589,441.842z M434.45,447.196
				c-0.259,0-0.468-0.209-0.468-0.468s0.209-0.468,0.468-0.468s0.468,0.209,0.468,0.468S434.708,447.196,434.45,447.196z
				 M434.45,445.001c-0.259,0-0.468-0.212-0.468-0.471c0-0.256,0.209-0.468,0.468-0.468s0.468,0.212,0.468,0.468
				C434.918,444.789,434.708,445.001,434.45,445.001z M436.726,447.196c-0.259,0-0.468-0.209-0.468-0.468s0.209-0.468,0.468-0.468
				c0.259,0,0.471,0.209,0.471,0.468S436.984,447.196,436.726,447.196z M436.726,445.001c-0.259,0-0.468-0.212-0.468-0.471
				c0-0.256,0.209-0.468,0.468-0.468c0.259,0,0.471,0.212,0.471,0.468C437.197,444.789,436.984,445.001,436.726,445.001z
				 M435.657,442.595c-1.824,0-3.307,1.481-3.307,3.31c0,0.504,0.112,0.977,0.314,1.403c-0.277-0.487-0.435-1.046-0.435-1.642
				c0-1.835,1.484-3.319,3.313-3.319c1.4,0,2.596,0.864,3.086,2.089C438.086,443.347,436.956,442.595,435.657,442.595z"/>
		</g>
	</g>
</g>
<g id="TEXTS">
	<g>
		
			<text transform="matrix(1 0 0 1 124.0962 380.6582)" style="fill:#FFFFFF; font-family:'Alatsi-Regular'; font-size:39.9003px; letter-spacing:-1;">FASHION REPAIR</text>
		
			<text transform="matrix(1 0 0 1 157.6431 403.9072)" style="fill:#FFE082; font-family:'Alatsi-Regular'; font-size:23.6411px; letter-spacing:-1;">YOUR TAGLINE HERE</text>
	</g>
</g>
</svg>
