<svg width="745" height="852" viewBox="0 0 745 852" fill="none" xmlns="http://www.w3.org/2000/svg">
<path d="M688.091 211.967C669.238 268.737 556.895 304.089 474.903 329.882C459.118 334.848 444.2 339.533 431.443 343.902L415.658 349.055C407.269 351.804 398.752 354.55 390.189 357.362L394.557 338.407C403.726 335.47 412.89 332.536 422.018 329.599C469.153 314.487 517.889 298.84 563.551 281.074C610.554 261.526 653.8 241.228 665.299 208.19C674.942 176.151 646.058 135.432 605.885 124.409C564.199 114.291 514.861 123.971 472.049 134.777C461.758 137.368 450.469 140.397 437.456 144.019C431.835 145.58 426.213 147.173 420.591 148.734C368.961 163.254 315.511 178.337 269.069 177.307C239.013 176.869 209.609 166.971 190.542 150.825L190.496 150.795C160.486 124.251 157.026 85.7808 179.9 33.1925C184.656 22.7321 189.37 13.9872 194.819 5.55503C196.291 3.24367 198.927 1.46241 202.301 0.589893C205.629 -0.28592 209.263 -0.190432 212.464 0.902688C215.705 1.99581 218.172 3.93181 219.38 6.43084C220.593 8.89694 220.333 11.6462 218.687 13.9576C198.494 46.8401 159.661 126.437 237.066 153.324C276.633 166.221 323.467 154.572 364.848 144.332C369.777 143.084 374.664 141.866 379.465 140.74C392.524 137.523 406.275 133.713 420.806 129.687C427.64 127.78 434.557 125.877 441.56 123.971C451.03 121.409 462.059 118.443 473.17 115.789C514.25 105.859 567.44 96.0206 614.443 108.17C665.303 122.249 700.374 171.716 688.091 211.967Z" fill="#FFE082"/>
<path d="M296.484 706.202C285.026 706.732 273.737 707.012 262.713 707.012C245.633 707.012 229.156 706.357 213.371 705.076C139.513 699.456 82.8626 676.349 58.0412 641.652L55.7068 638.435L60.7221 638.248C65.3909 638.06 69.9777 637.593 74.3 636.779L76.721 636.341L77.9339 637.902C100.549 667.225 148.158 685.742 215.619 691.521C240.873 693.549 267.163 694.082 293.758 693.052L296.484 706.202Z" fill="#FFE082"/>
<path d="M283.148 377.147C228.408 398.308 185.654 419.413 148.6 443.563C109.686 468.979 79.7531 499.145 62.0398 530.799L60.4258 533.683L64.7116 534.006C69.2938 534.352 73.8077 535.017 78.13 535.985L80.9203 536.61L82.0693 534.668C124.814 462.535 218.3 419.88 284.894 394.073C292.527 391.137 300.159 388.272 307.892 385.444L309.52 384.848L309.661 383.531C310.112 379.247 310.564 374.964 311.07 370.68L311.558 366.499L306.369 368.395C297.971 371.467 290.375 374.328 283.148 377.147Z" fill="#FFE082"/>
<path d="M738.459 497.436C734.023 496.54 729.71 498.249 728.447 501.426C697.06 578.119 595.809 625.871 516.434 652.409C462.798 669.767 408.431 681.831 354.822 688.264C348.32 689.058 341.331 689.789 333.461 690.503L330.447 690.776L330.88 696.687C330.981 698.234 331.081 699.808 331.236 701.355L331.482 703.825L334.884 703.512C342.028 702.85 349.287 702.076 356.445 701.21C517.251 681.959 699.485 613.721 744.149 504.633C745.376 501.436 742.932 498.341 738.459 497.436Z" fill="#FFE082"/>
<path d="M461.024 116.194C450.806 93.4358 400.562 82.7483 381.034 109.869C372.977 120.665 367.57 129.163 361.483 140.361C367.474 138.833 373.515 137.305 379.506 135.745C384.44 134.438 389.423 133.127 394.407 131.781C396.973 127.164 397.197 126.918 397.448 126.483C401.273 120.049 411.595 117.03 420.555 119.793C423.979 120.846 426.696 122.591 428.506 124.665C431.529 128.083 432.181 132.482 429.865 136.479C429.765 136.66 426.541 142.185 421.608 151.348C413.451 166.616 400.717 192.027 390.294 219.582C388.128 225.256 381.034 228.963 373.278 228.963C371.769 228.963 370.21 228.818 368.646 228.525C359.281 226.671 353.746 219.691 356.263 212.892C363.161 194.569 368.847 181.791 375.791 167.649C365.523 170.303 355.1 172.848 344.481 175.173C344.103 176.22 308.097 259.159 296.758 370.084C295.996 377.545 295.044 384.989 294.291 392.477C291.369 421.559 289.659 450.642 288.752 479.577C288.25 549.738 294.642 621.245 307.176 691.517C308.083 696.535 308.991 701.55 309.944 706.567C313.167 723.218 316.692 739.759 320.517 756.189C327.867 786.47 336.931 816.535 345.284 846.526C346.091 849.325 349.665 851.287 353.641 850.997C358.073 850.708 361.241 847.797 360.589 844.636C358.579 828.424 353.39 791.814 351.329 776.438C348.311 752.192 345.945 727.906 344.381 703.588C344.03 698.534 343.724 693.519 343.524 688.501C337.733 580.167 346.747 471.29 373.073 364.74C374.988 356.924 377.049 349.107 379.215 341.33C397.589 273.531 423.163 206.752 456.588 141.787C457.395 140.15 458.247 138.514 459.104 136.877C463.641 129.426 463.796 122.374 461.024 116.194Z" fill="url(#paint0_linear_2_37)"/>
<path d="M56.8831 544.944C25.4779 544.944 0 563.31 0 585.988C0 608.671 25.4734 627.066 56.8831 627.066C88.2883 627.066 113.721 608.671 113.721 585.988C113.721 563.31 88.2928 544.944 56.8831 544.944ZM40.8978 601.865C37.2686 601.865 34.3323 599.745 34.3323 597.124C34.3323 594.503 37.2686 592.383 40.8978 592.383C44.5271 592.383 47.4634 594.503 47.4634 597.124C47.4634 599.745 44.5271 601.865 40.8978 601.865ZM72.8319 579.627C69.2026 579.627 66.2663 577.477 66.2663 574.856C66.2663 572.265 69.2026 570.115 72.8319 570.115C76.4612 570.115 79.4385 572.265 79.4385 574.856C79.4385 577.477 76.4612 579.627 72.8319 579.627ZM57.9044 553.109C30.5389 553.109 8.27533 569.157 8.27533 588.981C8.27533 594.444 9.96226 599.564 12.9851 604.186C8.83608 598.912 6.45611 592.853 6.45611 586.39C6.45611 566.503 28.7196 550.426 56.1718 550.426C77.1815 550.426 95.1228 559.79 102.473 573.059C94.3477 561.258 77.4004 553.109 57.9044 553.109Z" fill="url(#paint1_linear_2_37)"/>
<defs>
<linearGradient id="paint0_linear_2_37" x1="375.796" y1="851.031" x2="375.796" y2="93.7983" gradientUnits="userSpaceOnUse">
<stop stop-color="#56371E"/>
<stop offset="1" stop-color="#83583F"/>
</linearGradient>
<linearGradient id="paint1_linear_2_37" x1="56.8626" y1="627.066" x2="56.8626" y2="544.945" gradientUnits="userSpaceOnUse">
<stop stop-color="#56371E"/>
<stop offset="1" stop-color="#80533A"/>
</linearGradient>
</defs>
</svg>
