<svg width="377" height="259" viewBox="0 0 377 259" fill="none" xmlns="http://www.w3.org/2000/svg">
<g opacity="0.7">
<path d="M359.782 64.4035C354.055 81.6531 319.919 92.3933 295.006 100.229C290.21 101.737 285.677 103.16 281.802 104.49L277.005 106.054C274.457 106.89 271.867 107.723 269.268 108.579L270.595 102.821C273.381 101.929 276.167 101.036 278.939 100.144C293.26 95.5508 308.069 90.7964 321.943 85.4C336.223 79.4602 349.363 73.2934 352.86 63.2545C355.792 53.5185 347.015 41.1483 334.805 37.7965C322.139 34.7213 307.148 37.6648 294.14 40.9475C291.012 41.7344 287.583 42.6563 283.63 43.756C281.921 44.2301 280.215 44.7142 278.506 45.1884C262.817 49.6003 246.581 54.1835 232.469 53.8707C223.337 53.739 214.405 50.7297 208.61 45.8238L208.596 45.8138C199.477 37.7504 198.429 26.0587 205.377 10.0833C206.823 6.90606 208.254 4.24903 209.909 1.68744C210.356 0.98613 211.159 0.442837 212.185 0.179435C213.197 -0.0872599 214.3 -0.0576545 215.271 0.274891C216.256 0.607436 217.004 1.19683 217.373 1.95411C217.742 2.70481 217.66 3.53782 217.163 4.23913C211.026 14.2287 199.227 38.4156 222.749 46.5843C234.772 50.5024 249.002 46.963 261.572 43.8516C263.067 43.4729 264.554 43.1008 266.013 42.7617C269.98 41.7838 274.161 40.6281 278.574 39.4033C280.649 38.8238 282.75 38.2443 284.88 37.6681C287.757 36.8911 291.108 35.989 294.482 35.1824C306.965 32.1664 323.124 29.1768 337.408 32.8677C352.856 37.1447 363.511 52.1751 359.782 64.4035Z" fill="#FFF0DA"/>
<path d="M240.795 214.572C237.311 214.734 233.883 214.819 230.531 214.819C225.343 214.819 220.337 214.622 215.54 214.23C193.099 212.521 175.887 205.501 168.346 194.959L167.635 193.981L169.157 193.925C170.575 193.869 171.97 193.724 173.284 193.48L174.018 193.349L174.387 193.823C181.258 202.732 195.725 208.359 216.219 210.114C223.893 210.73 231.881 210.891 239.96 210.578L240.795 214.572Z" fill="#FFF0DA"/>
<path d="M236.741 114.592C220.109 121.022 207.119 127.436 195.862 134.772C184.039 142.493 174.943 151.659 169.559 161.276L169.066 162.152L170.37 162.251C171.761 162.356 173.133 162.557 174.446 162.854L175.294 163.045L175.645 162.455C188.631 140.54 217.036 127.577 237.27 119.738C239.591 118.846 241.907 117.976 244.26 117.117L244.757 116.936L244.798 116.534C244.935 115.234 245.071 113.933 245.226 112.629L245.377 111.358L243.799 111.935C241.246 112.866 238.939 113.736 236.741 114.592Z" fill="#FFF0DA"/>
<path d="M375.083 151.139C373.733 150.866 372.425 151.386 372.042 152.351C362.503 175.652 331.741 190.162 307.626 198.225C291.331 203.5 274.808 207.165 258.522 209.12C256.547 209.361 254.423 209.585 252.034 209.802L251.117 209.884L251.249 211.679C251.281 212.149 251.309 212.627 251.359 213.098L251.432 213.848L252.467 213.753C254.637 213.552 256.844 213.315 259.019 213.052C307.877 207.204 363.247 186.471 376.815 153.325C377.185 152.357 376.441 151.415 375.083 151.139Z" fill="#FFF0DA"/>
<path d="M140.078 35.3043C136.973 28.39 121.709 25.1435 115.772 33.3814C113.324 36.6608 111.682 39.2422 109.831 42.6467C111.651 42.1824 113.488 41.7181 115.307 41.244C116.807 40.8456 118.321 40.4505 119.835 40.0389C120.614 38.6363 120.683 38.5606 120.76 38.4289C121.923 36.4732 125.06 35.5578 127.782 36.3974C128.821 36.7168 129.647 37.2469 130.198 37.8758C131.115 38.9129 131.315 40.2497 130.613 41.4646C130.581 41.5206 129.605 43.1998 128.105 45.982C125.63 50.6212 121.759 58.3422 118.59 66.7151C117.933 68.4371 115.777 69.5664 113.42 69.5664C112.959 69.5664 112.485 69.5236 112.011 69.4347C109.166 68.8716 107.483 66.7513 108.249 64.6836C110.347 59.1159 112.075 55.2339 114.186 50.9372C111.067 51.7439 107.898 52.5176 104.67 53.2222C104.556 53.5416 93.6136 78.7394 90.1713 112.442C89.9387 114.71 89.6515 116.969 89.4235 119.244C88.5344 128.081 88.0146 136.915 87.741 145.709C87.586 167.025 89.5328 188.753 93.3399 210.105C93.6135 211.629 93.8917 213.154 94.179 214.678C95.1592 219.735 96.2306 224.763 97.3887 229.755C99.6228 238.957 102.377 248.091 104.912 257.204C105.158 258.054 106.243 258.65 107.451 258.564C108.796 258.475 109.763 257.593 109.562 256.631C108.951 251.706 107.374 240.584 106.749 235.912C105.833 228.543 105.112 221.164 104.638 213.776C104.533 212.242 104.438 210.717 104.378 209.193C102.618 176.277 105.359 143.197 113.356 110.822C113.939 108.448 114.564 106.071 115.221 103.71C120.806 83.1086 128.575 62.82 138.729 43.0813C138.975 42.5841 139.235 42.0869 139.495 41.5897C140.872 39.3245 140.917 37.1811 140.078 35.3043Z" fill="#FFD988"/>
<path d="M17.2846 165.577C7.7418 165.577 0 171.157 0 178.049C0 184.94 7.7418 190.531 17.2846 190.531C26.8275 190.531 34.5558 184.94 34.5558 178.049C34.5558 171.154 26.8275 165.577 17.2846 165.577ZM12.0916 183.205C10.9107 183.205 9.95769 182.517 9.95769 181.664C9.95769 180.811 10.9107 180.123 12.0916 180.123C13.2725 180.123 14.2253 180.811 14.2253 181.664C14.2253 182.517 13.2679 183.205 12.0916 183.205ZM12.0916 175.978C10.9107 175.978 9.95769 175.28 9.95769 174.427C9.95769 173.584 10.9107 172.886 12.0916 172.886C13.2725 172.886 14.2253 173.584 14.2253 174.427C14.2253 175.28 13.2679 175.978 12.0916 175.978ZM22.4688 183.205C21.2879 183.205 20.3349 182.517 20.3349 181.664C20.3349 180.811 21.2879 180.123 22.4688 180.123C23.6497 180.123 24.6162 180.811 24.6162 181.664C24.6162 182.517 23.6451 183.205 22.4688 183.205ZM22.4688 175.978C21.2879 175.978 20.3349 175.28 20.3349 174.427C20.3349 173.584 21.2879 172.886 22.4688 172.886C23.6497 172.886 24.6162 173.584 24.6162 174.427C24.6162 175.28 23.6451 175.978 22.4688 175.978ZM17.5948 168.056C9.27842 168.056 2.5168 172.932 2.5168 178.954C2.5168 180.614 3.02743 182.171 3.94843 183.574C2.68548 181.97 1.9651 180.13 1.9651 178.167C1.9651 172.125 8.7312 167.239 17.0703 167.239C23.4535 167.239 28.9065 170.084 31.1407 174.117C28.6695 170.532 23.5174 168.056 17.5948 168.056Z" fill="#FFD988"/>
</g>
</svg>
